<svg width="45" height="56" viewBox="0 0 45 56" fill="none" xmlns="http://www.w3.org/2000/svg">
<path d="M44.3471 19.5837C32.8785 19.7805 23.6183 29.0408 23.4216 40.5094C23.4181 40.7143 23.2522 40.8819 23.0473 40.8819L21.6743 40.8817C21.4693 40.8816 21.3036 40.714 21.3 40.5091C21.1012 28.9186 11.6388 19.5835 0.00160737 19.58L0.00801256 4.56243C0.00809696 4.36453 0.163442 4.20118 0.361234 4.19481C0.592945 4.18735 0.82559 4.18359 1.05911 4.18359C12.8237 4.18359 22.3607 13.7207 22.3607 25.4852C22.3607 13.7207 31.8978 4.18359 43.6624 4.18359C43.8946 4.18359 44.1261 4.18731 44.3566 4.19469C44.5543 4.20102 44.7097 4.36434 44.7099 4.56223L44.7196 19.2092C44.7198 19.4142 44.5521 19.5802 44.3471 19.5837Z" fill="#FFFDFA"/>
<circle cx="22.36" cy="4.18328" r="4.18328" fill="#FFFDFA"/>
<path d="M0.000324249 29.4473C8.48128 29.4473 15.3564 36.2375 15.3564 44.6137H0.000324249V29.4473Z" fill="#FFFDFA"/>
<path d="M44.7198 29.4727C36.1949 29.4727 29.2842 36.298 29.2842 44.7175H44.7198V29.4727Z" fill="#FFFDFA"/>
<path d="M3.15173 53.0059H2.42711V46.1678H3.44771L5.38685 50.4135L5.99921 51.8934H6.06044L6.6728 50.4135L8.59153 46.1678H9.62234V53.0059H8.8875V48.2703L8.91812 47.2803H8.85689L8.43844 48.2703L6.45848 52.5976H5.58076L3.6008 48.2703L3.18235 47.2803H3.12111L3.15173 48.2703V53.0059ZM10.925 53.0059H10.1596L12.9254 46.1678H13.9664L16.7322 53.0059H15.9464L15.1197 51.0055H11.7415L10.925 53.0059ZM13.0071 47.9029L12.0069 50.3421H14.8441L13.844 47.9029L13.4561 46.8618H13.4051L13.0071 47.9029ZM17.7922 53.0059H17.0267L19.7925 46.1678H20.8335L23.5994 53.0059H22.8135L21.9868 51.0055H18.6086L17.7922 53.0059ZM19.8742 47.9029L18.874 50.3421H21.7113L20.7111 47.9029L20.3232 46.8618H20.2722L19.8742 47.9029ZM24.8793 53.0059H24.1547V46.1678H26.941C28.3494 46.1678 29.3088 46.8925 29.3088 48.158C29.3088 49.3215 28.5025 50.0257 27.2778 50.0563V50.1176C27.7064 50.2502 27.9922 50.536 28.2269 50.9545L29.4006 53.0059H28.5535L27.4513 51.0871C27.1145 50.4952 26.7573 50.2196 25.8693 50.2196H24.8793V53.0059ZM24.8793 46.8312V49.5971H27.0532C28.1044 49.5971 28.5739 49.1786 28.5739 48.209C28.5739 47.2701 28.1044 46.8312 27.0532 46.8312H24.8793ZM32.9804 53.1079C31.0718 53.1079 29.939 51.7403 29.939 49.5868C29.939 47.4538 31.1433 46.0658 33.1232 46.0658C34.7664 46.0658 35.9197 47.0251 35.9197 48.5458V48.6377H35.144V48.5458C35.144 47.3926 34.5011 46.77 33.062 46.77C31.4393 46.77 30.7146 47.6885 30.7146 49.5868C30.7146 51.4852 31.4495 52.4037 33.113 52.4037C34.5215 52.4037 35.2155 51.8322 35.2155 50.6074V50.2604H32.8477V49.6175H35.9299V53.0059H35.2665V51.873H35.2257C34.8991 52.6486 34.052 53.1079 32.9804 53.1079ZM36.9782 53.0059H36.2128L38.9786 46.1678H40.0196L42.7855 53.0059H41.9996L41.1729 51.0055H37.7947L36.9782 53.0059ZM39.0603 47.9029L38.0601 50.3421H40.8973L39.8972 47.9029L39.5093 46.8618H39.4583L39.0603 47.9029Z" fill="#FFFDFA"/>
</svg>
